<svg xmlns="http://www.w3.org/2000/svg" xmlns:xlink="http://www.w3.org/1999/xlink" width="500" zoomAndPan="magnify" viewBox="0 0 375 374.999991" height="500" preserveAspectRatio="xMidYMid meet" version="1.0"><defs><clipPath id="193d6be146"><path d="M 10.953125 10.953125 L 364.042969 10.953125 L 364.042969 364.042969 L 10.953125 364.042969 Z M 10.953125 10.953125 " clip-rule="nonzero"/></clipPath><clipPath id="0a30ff4223"><path d="M 187.5 10.953125 C 89.996094 10.953125 10.953125 89.996094 10.953125 187.5 C 10.953125 285.003906 89.996094 364.042969 187.5 364.042969 C 285.003906 364.042969 364.042969 285.003906 364.042969 187.5 C 364.042969 89.996094 285.003906 10.953125 187.5 10.953125 Z M 187.5 10.953125 " clip-rule="nonzero"/></clipPath><clipPath id="a6d556d8e8"><path d="M 0.953125 0.953125 L 354.042969 0.953125 L 354.042969 354.042969 L 0.953125 354.042969 Z M 0.953125 0.953125 " clip-rule="nonzero"/></clipPath><clipPath id="2320c9942c"><path d="M 177.5 0.953125 C 79.996094 0.953125 0.953125 79.996094 0.953125 177.5 C 0.953125 275.003906 79.996094 354.042969 177.5 354.042969 C 275.003906 354.042969 354.042969 275.003906 354.042969 177.5 C 354.042969 79.996094 275.003906 0.953125 177.5 0.953125 Z M 177.5 0.953125 " clip-rule="nonzero"/></clipPath><clipPath id="bbf69e4546"><rect x="0" width="355" y="0" height="355"/></clipPath><clipPath id="c1a459cff4"><path d="M 181 251 L 289.578125 251 L 289.578125 304 L 181 304 Z M 181 251 " clip-rule="nonzero"/></clipPath><clipPath id="d66188a41d"><path d="M 165 69.546875 L 263 69.546875 L 263 290 L 165 290 Z M 165 69.546875 " clip-rule="nonzero"/></clipPath></defs><g clip-path="url(#193d6be146)"><g clip-path="url(#0a30ff4223)"><g transform="matrix(1, 0, 0, 1, 10, 10)"><g clip-path="url(#bbf69e4546)"><g clip-path="url(#a6d556d8e8)"><g clip-path="url(#2320c9942c)"><path fill="#7ed957" d="M 0.953125 0.953125 L 354.042969 0.953125 L 354.042969 354.042969 L 0.953125 354.042969 Z M 0.953125 0.953125 " fill-opacity="1" fill-rule="nonzero"/></g></g></g></g></g></g><g clip-path="url(#c1a459cff4)"><path fill="#ffffff" d="M 181.925781 303.917969 C 191.75 285.09375 207.914062 269.644531 227.160156 260.675781 C 246.414062 251.707031 268.636719 249.273438 289.371094 253.859375 C 263.953125 285.714844 222.652344 305.441406 181.925781 303.917969 " fill-opacity="1" fill-rule="nonzero"/></g><path fill="#ffffff" d="M 149.265625 290.152344 C 160.707031 259.5 161.753906 225.070312 152.195312 193.777344 C 142.640625 162.488281 122.535156 134.519531 95.914062 115.492188 C 85.609375 177.429688 105.5625 245.066406 149.265625 290.152344 " fill-opacity="1" fill-rule="nonzero"/><g clip-path="url(#d66188a41d)"><path fill="#ffffff" d="M 172.484375 289.246094 C 161.214844 248.296875 163.820312 203.65625 179.777344 164.296875 C 195.734375 124.933594 224.949219 91.082031 261.554688 69.542969 C 267.757812 150.816406 234.179688 235.976562 172.484375 289.246094 " fill-opacity="1" fill-rule="nonzero"/></g></svg>